<?xml version="1.0" standalone="no"?>
<!DOCTYPE svg PUBLIC "-//W3C//DTD SVG 1.1//EN" "http://www.w3.org/Graphics/SVG/1.1/DTD/svg11.dtd" >
<svg>
<metadata>
Created by FontForge 20120731 at Sat Jun 29 14:42:00 2019
 By www
Digitized Data (c) 1990 The Monotype Corporation.  All rights reserved. 
</metadata>
<defs>
<font id="ArialMTStd" horiz-adv-x="556" >
  <font-face 
    font-family="Arial MT Std"
    font-weight="400"
    font-stretch="normal"
    units-per-em="1000"
    panose-1="2 11 4 2 2 2 0 2 2 4"
    ascent="726"
    descent="-274"
    x-height="518"
    cap-height="716"
    bbox="-222 -230 1006 922"
    underline-thickness="50"
    underline-position="-50"
    stemh="72"
    stemv="88"
    unicode-range="U+0020-FB02"
  />
<missing-glyph horiz-adv-x="600" 
d="M62 0v665h475v-665h-475zM138 618l162 -243l161 243h-323zM110 575v-484c0 -1 161 242 161 242zM490 575l-162 -242l162 -243v485zM461 48l-161 242l-162 -242h323z" />
    <glyph glyph-name="fi" unicode="fi" horiz-adv-x="500" 
d="M177 0h-88v452h-78v66h78v51c0 106 47 159 139 159c30 0 62 -4 89 -11l-14 -75c-29 5 -47 5 -58 5c-63 0 -68 -41 -68 -95v-34h101v-66h-101v-452zM432 0h-88v518h88v-518zM432 616h-88v100h88v-100z" />
    <glyph glyph-name="fl" unicode="fl" horiz-adv-x="500" 
d="M177 0h-88v452h-78v66h78v51c0 106 47 159 139 159c30 0 62 -4 89 -11l-14 -75c-29 5 -47 5 -58 5c-63 0 -68 -41 -68 -95v-34h101v-66h-101v-452zM431 0h-88v716h88v-716z" />
    <glyph glyph-name=".notdef" horiz-adv-x="600" 
d="M62 0v665h475v-665h-475zM138 618l162 -243l161 243h-323zM110 575v-484c0 -1 161 242 161 242zM490 575l-162 -242l162 -243v485zM461 48l-161 242l-162 -242h323z" />
    <glyph glyph-name="space" unicode=" " horiz-adv-x="278" 
 />
    <glyph glyph-name="exclam" unicode="!" horiz-adv-x="278" 
d="M189 0h-100v100h100v-100zM168 178h-57l-27 379v159h109v-159z" />
    <glyph glyph-name="quotedbl" unicode="&#x22;" horiz-adv-x="355" 
d="M125 462h-54l-24 137v117h100v-117zM286 462h-53l-24 137v117h100v-117z" />
    <glyph glyph-name="numbersign" unicode="#" 
d="M125 -12h-73l42 208h-82v73h97l36 176h-133v73h148l43 210h73l-43 -210h154l43 210h73l-42 -210h84v-73h-99l-36 -176h135v-73h-150l-42 -208h-74l42 208h-153zM219 445l-37 -176h154l36 176h-153z" />
    <glyph glyph-name="dollar" unicode="$" 
d="M303 -103h-52v88c-65 8 -115 22 -158 71c-36 41 -51 87 -55 143l88 16c14 -100 61 -150 125 -156v280c-127 24 -199 93 -199 201c0 59 24 113 66 150c40 35 81 45 133 50v42h52v-42c111 -10 176 -73 191 -177l-91 -13c-10 66 -41 104 -100 116v-254c31 -8 65 -15 92 -27
c76 -34 117 -98 117 -182c0 -117 -81 -211 -209 -217v-89zM251 423v244c-70 -11 -109 -59 -109 -122c0 -60 34 -99 109 -122zM303 327v-268c65 8 119 60 119 138c0 80 -47 107 -119 130z" />
    <glyph glyph-name="percent" unicode="%" horiz-adv-x="889" 
d="M676 728l-390 -754h-73l392 754h71zM61 544c0 109 58 184 149 184s156 -69 156 -181c0 -133 -67 -198 -154 -198c-88 0 -151 68 -151 195zM213 667c-52 0 -76 -44 -76 -130c0 -84 26 -127 76 -127c53 0 77 44 77 130c0 84 -26 127 -77 127zM524 169c0 110 59 184 149 184
c92 0 156 -69 156 -181c0 -133 -67 -198 -154 -198c-88 0 -151 68 -151 195zM676 292c-52 0 -76 -44 -76 -130c0 -84 26 -127 76 -127c53 0 77 44 77 130c0 84 -26 127 -77 127z" />
    <glyph glyph-name="ampersand" unicode="&#x26;" horiz-adv-x="667" 
d="M133 569c0 85 75 159 178 159c98 0 166 -69 166 -153c0 -69 -45 -126 -135 -174l129 -164c16 31 27 66 34 100l91 -19c-14 -55 -32 -106 -64 -155c32 -43 72 -81 112 -110l-59 -70c-38 24 -75 60 -110 101c-58 -65 -127 -95 -202 -95c-139 0 -229 94 -229 214
c0 82 56 154 169 208c-50 59 -80 104 -80 158zM420 154l-161 200c-78 -47 -121 -91 -121 -151c0 -61 51 -138 133 -138c54 0 115 37 149 89zM258 503l39 -46c53 32 90 58 90 120c0 44 -36 79 -79 79c-50 0 -85 -36 -85 -75c0 -29 9 -47 35 -78z" />
    <glyph glyph-name="quoteright" unicode="&#x2019;" horiz-adv-x="222" 
d="M77 482l-22 34c42 18 52 56 54 100h-46v100h95v-103c0 -63 -29 -108 -81 -131z" />
    <glyph glyph-name="parenleft" unicode="(" horiz-adv-x="333" 
d="M296 -210h-63c-102 129 -173 299 -173 469c0 160 57 314 173 469h63c-64 -110 -146 -245 -146 -468c0 -158 49 -315 146 -470z" />
    <glyph glyph-name="parenright" unicode=")" horiz-adv-x="333" 
d="M36 728h63c116 -154 173 -309 173 -469c0 -170 -71 -341 -173 -469h-63c97 155 146 312 146 470c0 222 -81 356 -146 468z" />
    <glyph glyph-name="asterisk" unicode="*" horiz-adv-x="389" 
d="M130 423l-57 42c40 49 70 82 81 92c-37 7 -78 16 -120 27l22 70c43 -15 82 -30 113 -48c-4 42 -9 83 -9 122h70c-1 -49 -7 -89 -11 -121c30 15 72 33 115 47l23 -70c-39 -13 -86 -23 -122 -27c14 -12 47 -46 84 -92l-58 -42c-32 44 -52 80 -67 105
c-17 -31 -36 -68 -64 -105z" />
    <glyph glyph-name="plus" unicode="+" horiz-adv-x="584" 
d="M334 116h-83v195h-195v84h195v194h83v-194h195v-84h-195v-195z" />
    <glyph glyph-name="comma" unicode="," horiz-adv-x="278" 
d="M137 0h-50v100h100v-100c0 -66 -19 -114 -82 -141l-24 37c42 19 55 52 56 104z" />
    <glyph glyph-name="hyphen" unicode="-" horiz-adv-x="333" 
d="M302 215h-270v88h270v-88z" />
    <glyph glyph-name="period" unicode="." horiz-adv-x="278" 
d="M189 0h-100v100h100v-100z" />
    <glyph glyph-name="slash" unicode="/" horiz-adv-x="278" 
d="M71 -12h-71l207 740h71z" />
    <glyph glyph-name="zero" unicode="0" 
d="M44 353c0 243 80 366 233 366s234 -122 234 -366c0 -243 -80 -365 -233 -365c-155 0 -234 121 -234 365zM134 353c0 -191 40 -293 143 -293s144 101 144 293s-40 294 -144 294c-102 0 -143 -100 -143 -294z" />
    <glyph glyph-name="one" unicode="1" 
d="M375 719v-719h-88v560c-44 -42 -119 -85 -176 -106v85c98 46 176 116 207 180h57z" />
    <glyph glyph-name="two" unicode="2" 
d="M153 84h351v-84h-473v19c0 44 45 133 166 232c133 109 216 184 216 271c0 71 -56 125 -134 125c-81 0 -141 -50 -141 -145l-90 10c12 135 98 207 232 207c141 0 223 -89 223 -195c0 -198 -273 -311 -350 -440z" />
    <glyph glyph-name="three" unicode="3" 
d="M513 219c0 -147 -118 -231 -234 -231c-138 0 -223 84 -235 201l88 12c18 -94 65 -141 140 -141c80 0 147 59 147 158c0 66 -56 130 -136 130c-30 0 -49 -5 -65 -9l9 77c72 -7 160 30 160 121c0 65 -51 110 -117 110c-70 0 -117 -46 -129 -129l-88 15
c22 120 103 186 215 186c121 0 209 -84 209 -181c0 -70 -33 -120 -98 -150c92 -22 134 -93 134 -169z" />
    <glyph glyph-name="four" unicode="4" 
d="M414 0h-88v171h-311v81l327 464h72v-464h96v-81h-96v-171zM101 252h225v323z" />
    <glyph glyph-name="five" unicode="5" 
d="M199 622l-38 -192c41 29 89 44 135 44c120 0 223 -90 223 -231c0 -146 -103 -255 -241 -255c-130 0 -222 75 -234 200l92 7c14 -91 68 -135 138 -135c87 0 151 70 151 181c0 89 -61 157 -153 157c-56 0 -103 -28 -130 -70l-82 11l69 367h356v-84h-286z" />
    <glyph glyph-name="six" unicode="6" 
d="M499 541l-87 -7c-17 74 -56 113 -121 113c-96 0 -163 -88 -164 -278c42 63 102 95 176 95c110 0 209 -92 209 -231c0 -141 -93 -245 -222 -245c-110 0 -197 64 -230 171c-15 49 -21 109 -21 176c0 256 93 384 255 384c113 0 190 -64 205 -178zM140 232
c0 -96 63 -172 146 -172c79 0 136 71 136 167c0 95 -57 161 -139 161c-78 0 -143 -62 -143 -156z" />
    <glyph glyph-name="seven" unicode="7" 
d="M400 622h-350v84h464v-68c-125 -132 -256 -382 -273 -638h-91c3 184 100 451 250 622z" />
    <glyph glyph-name="eight" unicode="8" 
d="M515 207c0 -126 -97 -219 -236 -219c-140 0 -236 94 -236 219c0 88 43 157 136 181c-71 26 -107 74 -107 146c0 105 83 185 206 185c125 0 207 -83 207 -187c0 -68 -35 -117 -105 -144c91 -30 135 -96 135 -181zM162 537c0 -68 49 -115 117 -115c66 0 116 48 116 111
c0 65 -51 114 -117 114c-68 0 -116 -52 -116 -110zM133 206c0 -82 60 -146 151 -146c75 0 141 57 141 144s-67 146 -146 146c-89 0 -146 -66 -146 -144z" />
    <glyph glyph-name="nine" unicode="9" 
d="M427 321v16c-35 -56 -102 -93 -169 -93c-121 0 -214 92 -214 233c0 142 94 242 225 242c89 0 166 -47 208 -130c31 -61 38 -132 38 -218c0 -111 -12 -198 -54 -268c-45 -75 -115 -115 -199 -115c-114 0 -191 64 -205 178l85 8c14 -76 50 -114 125 -114
c93 0 160 99 160 261zM417 481c0 96 -58 166 -137 166c-81 0 -146 -76 -146 -172c0 -92 62 -155 143 -155c85 0 140 66 140 161z" />
    <glyph glyph-name="colon" unicode=":" horiz-adv-x="278" 
d="M189 0h-100v100h100v-100zM189 418h-100v100h100v-100z" />
    <glyph glyph-name="semicolon" unicode=";" horiz-adv-x="278" 
d="M137 0h-50v100h100v-100c0 -66 -19 -114 -82 -141l-24 37c42 19 55 52 56 104zM187 418h-100v100h100v-100z" />
    <glyph glyph-name="less" unicode="&#x3c;" horiz-adv-x="584" 
d="M529 111l-474 202v82l474 200v-87l-376 -154l376 -156v-87z" />
    <glyph glyph-name="equal" unicode="=" horiz-adv-x="584" 
d="M529 285v-81h-473v81h473zM529 504v-84h-473v84h473z" />
    <glyph glyph-name="greater" unicode="&#x3e;" horiz-adv-x="584" 
d="M529 395v-82l-474 -202v87l376 156l-376 154v87z" />
    <glyph glyph-name="question" unicode="?" 
d="M327 0h-100v100h100v-100zM317 176h-84c0 6 -1 19 -1 25c0 72 21 127 75 175c77 68 111 95 111 153c0 63 -57 127 -141 127c-73 0 -126 -48 -141 -145l-90 10c17 134 101 207 232 207c136 0 230 -84 230 -195c0 -94 -60 -139 -143 -215c-45 -41 -47 -85 -48 -142z" />
    <glyph glyph-name="at" unicode="@" horiz-adv-x="1015" 
d="M497 529c58 0 111 -31 147 -90l16 76h88l-70 -328c-7 -34 -15 -61 -15 -76c0 -16 15 -31 36 -31c53 0 187 104 187 270c0 177 -149 308 -350 308c-239 0 -407 -183 -407 -421c0 -235 155 -375 423 -375c160 0 281 59 342 147h88c-40 -81 -144 -166 -267 -200
c-51 -14 -106 -19 -164 -19c-315 0 -494 173 -494 439c0 132 46 257 127 350c88 101 205 151 356 151c257 0 418 -178 418 -374c0 -204 -155 -357 -291 -357c-81 0 -93 37 -97 81c-44 -51 -99 -81 -148 -81c-100 0 -179 90 -179 221c0 148 119 309 254 309zM333 212
c0 -87 47 -141 108 -141c78 0 175 108 175 244c0 90 -47 142 -114 142c-99 0 -169 -137 -169 -245z" />
    <glyph glyph-name="A" unicode="A" horiz-adv-x="667" 
d="M99 0h-101l275 716h102l293 -716h-108l-84 218h-299zM283 504l-78 -210h242l-74 198c-12 32 -31 81 -51 149c-9 -45 -24 -96 -39 -137z" />
    <glyph glyph-name="B" unicode="B" horiz-adv-x="667" 
d="M346 0h-273v716h268c48 0 91 -4 129 -20c65 -28 110 -93 110 -157c0 -72 -35 -125 -101 -158c88 -26 134 -90 134 -177c0 -78 -42 -146 -112 -179c-45 -21 -97 -25 -155 -25zM168 331v-247h178c25 0 53 0 76 6c58 14 93 57 93 117c0 63 -39 107 -103 119
c-22 4 -51 5 -79 5h-165zM168 632v-217h155c57 0 101 0 135 34c20 20 28 43 28 73c0 103 -83 110 -175 110h-143z" />
    <glyph glyph-name="C" unicode="C" horiz-adv-x="722" 
d="M672 519l-94 -22c-32 100 -93 150 -191 150c-151 0 -238 -105 -238 -284c0 -191 88 -294 233 -294c100 0 181 59 207 182l95 -24c-40 -155 -149 -239 -298 -239c-108 0 -184 28 -244 98s-91 164 -91 277c0 224 137 365 338 365c142 0 245 -76 283 -209z" />
    <glyph glyph-name="D" unicode="D" horiz-adv-x="722" 
d="M337 0h-258v716h247c85 0 155 -3 222 -54c79 -60 123 -163 123 -299c0 -190 -81 -316 -216 -351c-43 -11 -82 -12 -118 -12zM174 632v-548h152c85 0 141 11 184 61c44 50 63 123 63 219c0 100 -23 174 -76 222c-49 44 -104 46 -173 46h-150z" />
    <glyph glyph-name="E" unicode="E" horiz-adv-x="667" 
d="M613 0h-534v716h518v-84h-423v-220h396v-84h-396v-244h439v-84z" />
    <glyph glyph-name="F" unicode="F" horiz-adv-x="611" 
d="M175 0h-95v716h483v-84h-388v-222h336v-84h-336v-326z" />
    <glyph glyph-name="G" unicode="G" horiz-adv-x="778" 
d="M623 281h-212v84h303v-265c-93 -74 -187 -112 -297 -112c-218 0 -365 145 -365 367c0 218 132 373 359 373c159 0 256 -70 292 -212l-85 -24c-11 38 -22 74 -59 106s-88 49 -146 49c-171 0 -263 -112 -263 -287c0 -184 99 -287 275 -287c67 0 158 38 198 74v134z" />
    <glyph glyph-name="H" unicode="H" horiz-adv-x="722" 
d="M175 0h-95v716h95v-294h372v294h95v-716h-95v338h-372v-338z" />
    <glyph glyph-name="I" unicode="I" horiz-adv-x="278" 
d="M187 0h-95v716h95v-716z" />
    <glyph glyph-name="J" unicode="J" horiz-adv-x="500" 
d="M27 191v12l85 12c4 -88 26 -142 110 -142c28 0 56 9 75 29c29 30 29 68 29 121v493h95v-488c0 -87 -12 -143 -58 -188c-37 -35 -84 -52 -144 -52c-129 0 -192 81 -192 203z" />
    <glyph glyph-name="K" unicode="K" horiz-adv-x="667" 
d="M168 0h-95v716h95v-355l355 355h129l-301 -290l314 -426h-125l-255 362l-117 -114v-248z" />
    <glyph glyph-name="L" unicode="L" 
d="M523 0h-448v716h95v-632h353v-84z" />
    <glyph glyph-name="M" unicode="M" horiz-adv-x="833" 
d="M166 0h-91v716h143l169 -507c12 -35 23 -71 34 -106c14 46 27 84 38 115l172 498h127v-716h-91v599l-208 -599h-86l-207 609v-609z" />
    <glyph glyph-name="N" unicode="N" horiz-adv-x="722" 
d="M170 0h-91v716h97l376 -562v562h91v-716h-97l-376 562v-562z" />
    <glyph glyph-name="O" unicode="O" horiz-adv-x="778" 
d="M47 349c0 236 145 379 330 379c219 0 355 -148 355 -371c0 -225 -148 -369 -338 -369c-213 0 -347 162 -347 361zM145 347c0 -167 100 -278 244 -278c146 0 245 108 245 288c0 186 -106 290 -240 290c-154 0 -249 -104 -249 -300z" />
    <glyph glyph-name="P" unicode="P" horiz-adv-x="667" 
d="M172 0h-95v716h270c84 0 149 -2 206 -49c45 -37 70 -90 70 -152c0 -65 -16 -114 -56 -156c-52 -55 -117 -67 -212 -67h-183v-292zM172 632v-256h185c112 0 168 38 168 137c0 29 -13 63 -38 87c-35 32 -74 32 -132 32h-183z" />
    <glyph glyph-name="Q" unicode="Q" horiz-adv-x="778" 
d="M740 10l-28 -66c-61 22 -109 53 -153 88c-53 -29 -111 -44 -170 -44c-209 0 -347 153 -347 370c0 221 143 370 330 370c222 0 355 -156 355 -357c0 -127 -34 -222 -108 -294c37 -26 86 -54 121 -67zM387 129l23 69c50 -14 94 -33 135 -68c59 53 84 133 84 242
c0 162 -100 275 -243 275c-148 0 -246 -107 -246 -289c0 -185 103 -289 244 -289c33 0 67 7 97 19c-30 19 -59 33 -94 41z" />
    <glyph glyph-name="R" unicode="R" horiz-adv-x="722" 
d="M175 0h-95v716h317c76 0 135 -3 186 -44c45 -36 70 -89 70 -152c0 -105 -68 -175 -202 -194c45 -21 85 -53 135 -131l125 -195h-119l-95 149c-91 142 -119 168 -213 168h-109v-317zM175 637v-236h204c42 0 81 1 114 18c39 20 62 57 62 101c0 69 -48 117 -154 117h-226z
" />
    <glyph glyph-name="S" unicode="S" horiz-adv-x="667" 
d="M593 514l-91 -6c-10 91 -63 135 -174 135c-104 0 -164 -41 -164 -106c0 -42 25 -73 69 -86c67 -20 135 -37 202 -53c106 -24 179 -96 179 -196c0 -115 -97 -214 -265 -214c-196 0 -301 99 -304 242l90 8c6 -50 18 -86 58 -118c39 -31 92 -47 153 -47
c111 0 178 49 178 126c0 52 -44 90 -128 110c-57 14 -117 29 -175 46c-88 25 -147 91 -147 176c0 113 94 197 250 197c165 0 263 -82 269 -214z" />
    <glyph glyph-name="T" unicode="T" horiz-adv-x="611" 
d="M352 0h-95v632h-236v84h568v-84h-237v-632z" />
    <glyph glyph-name="U" unicode="U" horiz-adv-x="722" 
d="M547 303v413h95v-413c0 -115 -12 -193 -86 -255c-53 -45 -115 -60 -195 -60c-81 0 -143 15 -197 60c-74 61 -85 139 -85 255v413h95v-413c0 -87 6 -140 48 -182c34 -34 77 -48 134 -48c62 0 107 11 144 48c43 43 47 97 47 182z" />
    <glyph glyph-name="V" unicode="V" horiz-adv-x="667" 
d="M379 0h-98l-277 716h103l186 -520c4 -11 18 -46 37 -117c11 38 24 77 39 117l193 520h97z" />
    <glyph glyph-name="W" unicode="W" horiz-adv-x="944" 
d="M297 0h-97l-190 716h97l109 -470c10 -44 21 -92 31 -146c11 45 20 91 32 133l136 483h114l103 -362c27 -95 46 -187 56 -254c11 54 23 107 35 156l112 460h95l-196 -716h-91l-151 545c-6 20 -15 49 -23 85c-6 -27 -13 -58 -21 -85z" />
    <glyph glyph-name="X" unicode="X" horiz-adv-x="667" 
d="M118 0h-114l277 373l-244 343h112l131 -184c20 -28 40 -57 57 -88c14 23 38 57 57 82l144 190h103l-252 -337l271 -379h-117l-180 255c-11 15 -22 33 -31 48c-10 -17 -23 -36 -35 -53z" />
    <glyph glyph-name="Y" unicode="Y" horiz-adv-x="667" 
d="M374 0h-95v303l-276 413h116l140 -216c15 -23 40 -61 73 -121c23 40 51 84 79 127l138 210h110l-285 -413v-303z" />
    <glyph glyph-name="Z" unicode="Z" horiz-adv-x="611" 
d="M584 0h-566v88l367 458c25 31 51 62 74 86h-400v84h513v-84l-402 -497c-13 -16 -29 -34 -43 -51h457v-84z" />
    <glyph glyph-name="bracketleft" unicode="[" horiz-adv-x="278" 
d="M260 -199h-194v915h194v-73h-106v-769h106v-73z" />
    <glyph glyph-name="backslash" unicode="\" horiz-adv-x="278" 
d="M278 -12h-71l-207 740h71z" />
    <glyph glyph-name="bracketright" unicode="]" horiz-adv-x="278" 
d="M212 716v-915h-194v73h106v769h-106v73h194z" />
    <glyph glyph-name="asciicircum" unicode="^" horiz-adv-x="469" 
d="M233 629l-117 -292h-90l173 391h70l174 -391h-89z" />
    <glyph glyph-name="underscore" unicode="_" 
d="M562 -75v-50h-568v50h568z" />
    <glyph glyph-name="quoteleft" unicode="&#x2018;" horiz-adv-x="222" 
d="M112 595h47v-100h-95v102c0 63 29 108 81 131l21 -34c-43 -18 -52 -55 -54 -99z" />
    <glyph glyph-name="a" unicode="a" 
d="M203 294c72 10 144 16 197 35v16c0 62 -16 113 -126 113c-101 0 -121 -44 -135 -99l-86 11c23 107 94 160 231 160c83 0 140 -16 174 -58c31 -38 30 -81 30 -137v-117c0 -93 -5 -159 28 -218h-92c-12 25 -16 47 -18 64c-60 -51 -120 -76 -188 -76
c-114 0 -180 61 -180 149c0 81 59 142 165 157zM400 228v32c-120 -49 -268 -15 -268 -121c0 -49 37 -82 109 -82c43 0 90 18 120 49c34 36 39 74 39 122z" />
    <glyph glyph-name="b" unicode="b" 
d="M67 0v716h88v-256c37 47 83 70 142 70c131 0 220 -105 220 -259c0 -185 -103 -282 -225 -282c-57 0 -108 25 -143 76v-65h-82zM148 263c0 -50 1 -94 27 -137c25 -42 66 -65 110 -65c83 0 142 69 142 209c0 111 -54 188 -138 188c-83 0 -141 -79 -141 -195z" />
    <glyph glyph-name="c" unicode="c" horiz-adv-x="500" 
d="M482 366l-85 -13c-16 69 -58 105 -118 105c-93 0 -150 -68 -150 -196c0 -132 53 -201 145 -201c70 0 117 41 130 129l87 -11c-19 -124 -107 -190 -217 -190c-146 0 -235 100 -235 277c0 164 91 264 245 264c91 0 176 -49 198 -164z" />
    <glyph glyph-name="d" unicode="d" 
d="M404 0v66c-33 -52 -84 -77 -144 -77c-126 0 -224 105 -224 273c0 165 87 268 223 268c53 0 106 -25 139 -71v257h88v-716h-82zM126 259c0 -132 65 -198 142 -198c78 0 138 64 138 190c0 131 -55 207 -141 207c-87 0 -139 -72 -139 -199z" />
    <glyph glyph-name="e" unicode="e" 
d="M516 237h-387c6 -113 69 -176 157 -176c68 0 111 35 136 106l91 -11c-28 -105 -110 -167 -223 -167c-161 0 -252 100 -252 266c0 168 94 275 242 275c139 0 236 -99 236 -270v-23zM134 310h289c-2 19 -3 42 -13 65c-21 50 -71 83 -129 83c-84 0 -141 -63 -147 -148z" />
    <glyph glyph-name="f" unicode="f" horiz-adv-x="278" 
d="M174 452v-452h-88v452h-78v66h78v56c0 98 33 154 145 154c27 0 55 -4 80 -9l-13 -77c-21 4 -38 5 -53 5c-62 0 -71 -32 -71 -80v-49h100v-66h-100z" />
    <glyph glyph-name="g" unicode="g" 
d="M410 456v62h81v-448c0 -63 -5 -114 -17 -150c-29 -83 -106 -130 -217 -130c-135 0 -206 70 -206 153c0 6 1 8 1 14l85 -13c8 -54 43 -82 124 -82c54 0 96 20 119 55c21 33 22 75 22 125v26c-38 -45 -85 -68 -142 -68c-136 0 -226 110 -226 263c0 160 89 267 226 267
c61 0 110 -25 150 -74zM124 269c0 -130 57 -197 145 -197c39 0 79 20 105 56c28 38 35 81 35 136c0 127 -62 194 -144 194c-81 0 -141 -70 -141 -189z" />
    <glyph glyph-name="h" unicode="h" 
d="M156 0h-88v716h88v-257c41 48 92 71 156 71c48 0 90 -13 123 -39c45 -36 56 -85 56 -163v-328h-88v328c0 83 -36 126 -111 126c-48 0 -92 -25 -115 -62c-19 -31 -21 -67 -21 -108v-284z" />
    <glyph glyph-name="i" unicode="i" horiz-adv-x="222" 
d="M156 0h-88v518h88v-518zM156 616h-88v100h88v-100z" />
    <glyph glyph-name="j" unicode="j" horiz-adv-x="222" 
d="M155 518v-546c0 -108 -23 -182 -127 -182c-23 0 -47 2 -72 9l17 74c9 -2 24 -7 42 -7c44 0 52 33 52 108v544h88zM155 716v-100h-88v100h88z" />
    <glyph glyph-name="k" unicode="k" horiz-adv-x="500" 
d="M154 0h-88v716h88v-408l208 210h114l-199 -192l219 -326h-109l-171 265l-62 -59v-206z" />
    <glyph glyph-name="l" unicode="l" horiz-adv-x="222" 
d="M154 716v-716h-88v716h88z" />
    <glyph glyph-name="m" unicode="m" horiz-adv-x="833" 
d="M462 301v-301h-88v337c0 74 -24 117 -92 117c-45 0 -86 -23 -107 -60c-19 -33 -21 -75 -21 -125v-269h-88v518h79v-72c35 54 91 84 158 84c70 0 123 -29 145 -91c41 60 91 91 160 91c103 0 162 -58 162 -175v-355h-88v327c0 65 -10 127 -94 127c-69 0 -126 -44 -126 -153
z" />
    <glyph glyph-name="n" unicode="n" 
d="M147 518v-73c38 56 96 85 165 85c71 0 128 -30 155 -76c23 -40 23 -84 23 -135v-319h-88v315c0 38 -1 71 -20 98c-18 25 -50 41 -89 41c-51 0 -98 -25 -119 -65c-15 -28 -18 -64 -18 -106v-283h-88v518h79z" />
    <glyph glyph-name="o" unicode="o" 
d="M35 259c0 177 102 271 243 271c78 0 144 -30 189 -87c40 -51 54 -109 54 -184c0 -178 -102 -270 -243 -270c-78 0 -144 29 -189 86c-40 51 -54 109 -54 184zM125 259c0 -128 62 -198 153 -198c89 0 153 69 153 198c0 128 -62 199 -153 199c-90 0 -153 -70 -153 -199z" />
    <glyph glyph-name="p" unicode="p" 
d="M148 518v-67c37 52 81 79 149 79c133 0 221 -106 221 -263c0 -175 -100 -278 -226 -278c-55 0 -103 24 -136 65v-253h-88v717h80zM147 256c0 -130 59 -195 139 -195c79 0 142 66 142 202c0 127 -58 198 -138 198c-81 0 -143 -79 -143 -205z" />
    <glyph glyph-name="q" unicode="q" 
d="M407 449v69h79v-717h-87v254c-29 -40 -81 -66 -136 -66c-125 0 -226 105 -226 275c0 163 89 266 220 266c62 0 113 -27 150 -81zM127 261c0 -131 62 -200 143 -200c76 0 137 64 137 192s-58 208 -143 208c-81 0 -137 -71 -137 -200z" />
    <glyph glyph-name="r" unicode="r" horiz-adv-x="333" 
d="M143 518v-78c28 50 55 90 114 90c31 0 61 -10 89 -28l-30 -81c-20 12 -42 19 -67 19c-60 0 -97 -55 -97 -168v-272h-88v518h79z" />
    <glyph glyph-name="s" unicode="s" horiz-adv-x="500" 
d="M442 385l-86 -12c-8 57 -49 85 -113 85c-72 0 -112 -26 -112 -68c0 -109 331 -42 331 -237c0 -90 -80 -164 -202 -164c-136 0 -209 51 -229 166l87 13c10 -72 59 -107 134 -107c80 0 120 38 120 82c0 115 -326 42 -326 238c0 84 70 149 192 149c66 0 118 -14 156 -48
c33 -29 42 -59 48 -97z" />
    <glyph glyph-name="t" unicode="t" horiz-adv-x="278" 
d="M168 452v-310c0 -46 0 -73 49 -73c11 0 24 3 39 5l13 -78c-18 -4 -41 -8 -65 -8c-126 0 -124 79 -124 159v305h-64v66h64v129l88 53v-182h88v-66h-88z" />
    <glyph glyph-name="u" unicode="u" 
d="M399 241v277h88v-518h-79v76c-40 -58 -97 -88 -165 -88c-69 0 -125 30 -153 76c-24 39 -24 83 -24 133v321h88v-328c0 -84 36 -126 113 -126c30 0 67 14 93 40c34 34 39 76 39 137z" />
    <glyph glyph-name="v" unicode="v" horiz-adv-x="500" 
d="M293 0h-83l-197 518h93l111 -310c12 -35 24 -70 34 -105c11 38 22 71 32 99l115 316h91z" />
    <glyph glyph-name="w" unicode="w" horiz-adv-x="722" 
d="M256 0h-92l-159 518h91l82 -299c8 -30 19 -68 31 -111c6 27 16 66 27 107l82 303h91l77 -300c7 -27 17 -61 26 -99c9 34 20 68 30 100l89 299h86l-163 -518h-91l-83 311c-10 36 -15 67 -20 88z" />
    <glyph glyph-name="x" unicode="x" horiz-adv-x="500" 
d="M113 0h-106l189 270l-175 248h110l80 -121c11 -17 24 -38 36 -58c12 19 26 39 39 57l88 122h105l-179 -243l193 -275h-108l-107 161c-8 12 -18 30 -28 44z" />
    <glyph glyph-name="y" unicode="y" horiz-adv-x="500" 
d="M491 518l-197 -527c-44 -119 -75 -201 -175 -201c-24 0 -43 5 -57 10l-10 83c13 -3 31 -8 52 -8c75 0 80 48 109 124l-197 519h95l108 -300c15 -41 27 -82 37 -120c6 23 16 62 37 119l110 301h88z" />
    <glyph glyph-name="z" unicode="z" horiz-adv-x="500" 
d="M479 0h-459v71l330 379c-31 -2 -66 -5 -99 -5h-211v73h424v-57l-281 -329c-18 -22 -39 -43 -55 -61c37 3 76 5 111 5h240v-76z" />
    <glyph glyph-name="braceleft" unicode="{" horiz-adv-x="334" 
d="M29 219v80c108 3 102 101 102 251c0 87 21 142 73 166c29 14 56 12 81 12h27v-76h-15c-66 0 -84 -14 -84 -101v-72c0 -134 -25 -183 -103 -220c84 -35 103 -103 103 -221v-71c0 -87 18 -101 84 -101h15v-76h-27c-25 0 -52 -2 -81 12c-52 24 -73 78 -73 165
c0 150 6 249 -102 252z" />
    <glyph glyph-name="bar" unicode="|" horiz-adv-x="260" 
d="M169 -210h-77v938h77v-938z" />
    <glyph glyph-name="braceright" unicode="}" horiz-adv-x="334" 
d="M24 728h27c27 0 53 1 81 -12c52 -24 73 -79 73 -166c0 -150 -6 -248 102 -251v-80c-108 -3 -102 -101 -102 -252c0 -87 -21 -141 -73 -165c-28 -13 -54 -12 -81 -12h-27v76h15c66 0 84 15 84 101v71c0 118 18 186 102 221c-78 37 -102 86 -102 220v72
c0 86 -18 101 -84 101h-15v76z" />
    <glyph glyph-name="asciitilde" unicode="~" horiz-adv-x="584" 
d="M170 338c-55 0 -90 -30 -127 -66v100c34 38 83 59 136 59c97 0 170 -66 238 -66c43 0 90 28 126 67v-103c-38 -36 -79 -56 -133 -56c-102 0 -159 65 -240 65z" />
    <glyph glyph-name="exclamdown" unicode="&#xa1;" horiz-adv-x="333" 
d="M117 518h100v-100h-100v100zM137 341h57l27 -380v-158h-109v158z" />
    <glyph glyph-name="cent" unicode="&#xa2;" 
d="M497 366l-85 -13c-8 33 -21 61 -47 83l-108 -374c17 -4 33 -3 44 -3c40 0 105 38 118 131l88 -10c-23 -129 -120 -193 -208 -193c-18 0 -39 1 -61 6l-58 -193l-55 16l57 194c-80 39 -128 127 -128 247c0 175 91 273 245 273c8 0 24 -2 34 -3l55 189l54 -16l-55 -189
c65 -28 97 -75 110 -145zM205 86l108 373c-8 1 -11 -1 -19 -1c-95 0 -150 -68 -150 -199c0 -82 21 -143 61 -173z" />
    <glyph glyph-name="sterling" unicode="&#xa3;" 
d="M119 323h-96v73h75c-11 37 -24 78 -24 136c0 107 88 196 224 196c110 0 195 -63 214 -185l-88 -13c-10 79 -64 126 -131 126c-73 0 -125 -53 -125 -123c0 -22 7 -75 27 -137h154v-73h-139c12 -27 8 -43 8 -57c0 -30 -14 -98 -85 -173c26 7 53 11 79 11
c72 0 121 -32 190 -32c39 0 69 12 100 27l28 -81c-34 -14 -71 -30 -124 -30c-64 0 -125 44 -224 44c-26 0 -84 -14 -133 -46l-34 85c63 35 113 100 113 191c0 22 -4 43 -9 61z" />
    <glyph glyph-name="fraction" unicode="&#x2044;" horiz-adv-x="167" 
d="M-145 -28h-77l538 756h76z" />
    <glyph glyph-name="yen" unicode="&#xa5;" 
d="M323 0h-88v160h-202v66h202v70h-202v73h166l-198 347h98l141 -252c14 -25 28 -52 37 -75c14 32 30 58 41 79l133 248h105l-198 -347h166v-73h-201v-70h201v-66h-201v-160z" />
    <glyph glyph-name="florin" unicode="&#x192;" 
d="M354 452l-93 -535c-16 -91 -50 -126 -130 -126c-26 0 -65 3 -106 11l17 76c26 -6 54 -11 76 -11c48 0 55 37 61 75l86 510h-98l12 66h98l12 66c15 84 37 145 143 145c37 0 71 -11 101 -19l-18 -75c-23 5 -49 13 -78 13c-45 0 -53 -33 -61 -79l-9 -51h99l-12 -66h-100z
" />
    <glyph glyph-name="section" unicode="&#xa7;" 
d="M480 -50c0 -90 -78 -159 -194 -159c-122 0 -199 63 -214 175l89 12c16 -75 49 -115 126 -115c65 0 103 41 103 86c0 33 -26 65 -90 106c-61 39 -123 79 -182 120c-43 30 -76 87 -76 141c0 58 39 116 110 137c-38 36 -63 71 -63 119c0 83 68 156 178 156
c118 0 189 -57 204 -169l-91 -10c-11 65 -36 107 -105 107c-59 0 -100 -37 -100 -79c0 -34 29 -66 89 -104c162 -102 249 -141 249 -247c0 -82 -53 -115 -111 -139c51 -39 78 -85 78 -137zM358 119c47 24 72 58 72 91s-29 70 -60 91c-97 65 -157 103 -175 118
c-43 -24 -73 -52 -73 -93c0 -31 18 -64 42 -80c100 -69 167 -108 194 -127z" />
    <glyph glyph-name="currency" unicode="&#xa4;" 
d="M106 469l-68 67l56 58l68 -68c37 25 79 35 116 35s79 -10 116 -35l68 68l56 -58l-68 -67c30 -46 35 -89 35 -115c0 -25 -5 -68 -35 -115l68 -66l-56 -58l-68 68c-37 -25 -79 -35 -116 -35s-79 10 -116 35l-68 -68l-56 58l68 66c-30 47 -35 90 -35 115c0 26 5 69 35 115z
M278 481c-70 0 -127 -56 -127 -126s57 -127 127 -127s127 57 127 127c0 72 -62 126 -127 126z" />
    <glyph glyph-name="quotesingle" unicode="'" horiz-adv-x="191" 
d="M123 462h-55l-22 134v120h100v-120z" />
    <glyph glyph-name="quotedblleft" unicode="&#x201c;" horiz-adv-x="333" 
d="M88 595h47v-100h-95v102c0 63 29 108 81 131l21 -34c-43 -18 -52 -55 -54 -99zM240 595h46v-100h-95v102c0 63 29 108 81 131l22 -34c-43 -18 -52 -55 -54 -99z" />
    <glyph glyph-name="guillemotleft" unicode="&#xab;" 
d="M296 481l-128 -223l127 -223h-71l-156 223l156 223h72zM486 481l-129 -223l129 -223h-74l-153 223l153 223h74z" />
    <glyph glyph-name="guilsinglleft" unicode="&#x2039;" horiz-adv-x="333" 
d="M271 481l-130 -224l130 -222h-73l-154 222l154 224h73z" />
    <glyph glyph-name="guilsinglright" unicode="&#x203a;" horiz-adv-x="333" 
d="M61 35l129 224l-129 222h73l154 -222l-154 -224h-73z" />
    <glyph glyph-name="endash" unicode="&#x2013;" 
d="M562 223h-568v73h568v-73z" />
    <glyph glyph-name="dagger" unicode="&#x2020;" 
d="M321 -169h-88v593h-195v76h195v199h88v-199h196v-76h-196v-593z" />
    <glyph glyph-name="daggerdbl" unicode="&#x2021;" 
d="M322 -169h-88v182h-196v76h196v357h-196v76h196v184h88v-184h197v-76h-197v-357h197v-76h-197v-182z" />
    <glyph glyph-name="periodcentered" unicode="&#xb7;" horiz-adv-x="278" 
d="M189 302h-100v100h100v-100z" />
    <glyph glyph-name="paragraph" unicode="&#xb6;" horiz-adv-x="537" 
d="M276 -199h-80v511c-123 6 -198 85 -198 201c0 117 77 203 231 203h309v-84h-70v-831h-83v831h-109v-831z" />
    <glyph glyph-name="bullet" unicode="&#x2022;" horiz-adv-x="350" 
d="M51 351c0 68 56 123 124 123s123 -55 123 -123s-55 -124 -123 -124s-124 56 -124 124z" />
    <glyph glyph-name="quotesinglbase" unicode="&#x201a;" horiz-adv-x="222" 
d="M109 0h-46v100h95v-101c0 -63 -29 -108 -81 -131l-22 34c42 18 52 54 54 98z" />
    <glyph glyph-name="quotedblbase" unicode="&#x201e;" horiz-adv-x="333" 
d="M88 0h-46v100h95v-101c0 -63 -29 -108 -81 -131l-22 34c42 18 52 54 54 98zM239 0h-46v100h95v-101c0 -63 -29 -108 -81 -131l-22 34c42 17 52 53 54 98z" />
    <glyph glyph-name="quotedblright" unicode="&#x201d;" horiz-adv-x="333" 
d="M56 482l-22 34c42 18 52 56 54 100h-46v100h95v-103c0 -63 -29 -108 -81 -131zM207 482l-22 34c42 17 52 56 54 100h-46v100h95v-103c0 -63 -29 -108 -81 -131z" />
    <glyph glyph-name="guillemotright" unicode="&#xbb;" 
d="M261 35l127 223l-128 223h73l155 -223l-155 -223h-72zM70 35l129 223l-129 223h74l153 -223l-153 -223h-74z" />
    <glyph glyph-name="ellipsis" unicode="&#x2026;" horiz-adv-x="1000" 
d="M217 0h-100v100h100v-100zM551 0h-100v100h100v-100zM884 0h-100v100h100v-100z" />
    <glyph glyph-name="perthousand" unicode="&#x2030;" horiz-adv-x="1000" 
d="M19 543c0 120 50 185 139 185c87 0 140 -63 140 -184c0 -128 -45 -195 -139 -195c-88 0 -140 67 -140 194zM91 539c0 -83 18 -129 70 -129c48 0 65 48 65 128c0 86 -20 129 -68 129c-52 0 -67 -47 -67 -128zM514 728l-293 -754h-65l294 754h64zM373 165
c0 120 50 188 139 188c87 0 141 -65 141 -186c0 -128 -46 -193 -140 -193c-88 0 -140 64 -140 191zM445 161c0 -83 18 -126 70 -126c48 0 66 46 66 126c0 86 -19 131 -67 131c-52 0 -69 -50 -69 -131zM702 165c0 120 51 188 140 188c87 0 140 -65 140 -186
c0 -128 -46 -193 -140 -193c-88 0 -140 64 -140 191zM774 161c0 -83 18 -126 70 -126c48 0 66 46 66 126c0 86 -20 131 -68 131c-52 0 -68 -50 -68 -131z" />
    <glyph glyph-name="questiondown" unicode="&#xbf;" horiz-adv-x="611" 
d="M257 518h100v-100h-100v100zM267 342h84v-18c0 -72 -14 -128 -74 -182c-76 -67 -111 -94 -111 -152c0 -63 57 -127 141 -127c73 0 125 47 140 144l91 -10c-16 -131 -100 -206 -232 -206c-136 0 -230 84 -230 195c0 95 60 139 142 214c45 41 48 86 49 142z" />
    <glyph glyph-name="grave" unicode="`" horiz-adv-x="333" 
d="M161 720l66 -137h-71l-113 137h118z" />
    <glyph glyph-name="acute" unicode="&#xb4;" horiz-adv-x="333" 
d="M182 583h-73l65 137h115z" />
    <glyph glyph-name="circumflex" unicode="&#x2c6;" horiz-adv-x="333" 
d="M221 583l-53 83l-56 -83h-100l106 137h93l110 -137h-100z" />
    <glyph glyph-name="tilde" unicode="&#x2dc;" horiz-adv-x="333" 
d="M104 642c-20 0 -36 -17 -36 -41v-6h-65v10c0 52 38 102 100 102c50 0 92 -41 128 -41c23 0 31 12 35 42h64c-3 -76 -43 -111 -94 -111c-59 0 -95 45 -132 45z" />
    <glyph glyph-name="macron" unicode="&#xaf;" horiz-adv-x="333" 
d="M319 599h-305v73h305v-73z" />
    <glyph glyph-name="breve" unicode="&#x2d8;" horiz-adv-x="333" 
d="M22 715h60c9 -44 35 -66 84 -66s75 22 84 66h61c-10 -84 -65 -127 -144 -127c-82 0 -135 43 -145 127z" />
    <glyph glyph-name="dotaccent" unicode="&#x2d9;" horiz-adv-x="333" 
d="M221 583h-109v109h109v-109z" />
    <glyph glyph-name="dieresis" unicode="&#xa8;" horiz-adv-x="333" 
d="M122 620h-91v100h91v-100zM304 620h-91v100h91v-100z" />
    <glyph glyph-name="ring" unicode="&#x2da;" horiz-adv-x="333" 
d="M79 653c0 45 37 88 89 88c46 0 87 -40 87 -90c0 -49 -39 -89 -88 -89c-48 0 -88 38 -88 91zM116 653c0 -31 24 -54 52 -54c29 0 51 24 51 53s-22 53 -51 53c-30 0 -52 -25 -52 -52z" />
    <glyph glyph-name="cedilla" unicode="&#xb8;" horiz-adv-x="333" 
d="M52 -200l5 57c13 -1 32 -1 46 -1c51 0 79 11 79 36c0 26 -33 33 -77 33l25 86h66l-16 -52c58 -7 83 -38 83 -73c0 -51 -54 -91 -136 -91c-24 0 -51 0 -75 5z" />
    <glyph glyph-name="hungarumlaut" unicode="&#x2dd;" horiz-adv-x="333" 
d="M98 583h-70l59 137h114zM271 583h-74l62 137h113z" />
    <glyph glyph-name="ogonek" unicode="&#x2db;" horiz-adv-x="333" 
d="M303 -120v-58c-37 -19 -80 -29 -96 -29c-78 0 -117 41 -117 107c0 33 7 72 19 112h61c-12 -27 -19 -56 -19 -78c0 -46 29 -77 73 -77c22 0 51 9 79 23z" />
    <glyph glyph-name="caron" unicode="&#x2c7;" horiz-adv-x="333" 
d="M120 720l56 -83l53 83h100l-110 -137h-93l-106 137h100z" />
    <glyph glyph-name="emdash" unicode="&#x2014;" horiz-adv-x="1000" 
d="M1006 223h-1012v73h1012v-73z" />
    <glyph glyph-name="AE" unicode="&#xc6;" horiz-adv-x="1000" 
d="M102 0h-102l344 716h588v-84h-360v-221h334v-84h-334v-243h373v-84h-468v207h-277zM406 632l-166 -341h237v341h-71z" />
    <glyph glyph-name="ordfeminine" unicode="&#xaa;" horiz-adv-x="370" 
d="M348 373h-72c-8 16 -11 29 -11 43c-38 -33 -82 -53 -124 -53c-70 0 -120 41 -120 108c0 116 125 96 237 125c0 35 -1 75 -78 75c-47 0 -74 -20 -80 -61l-67 17c8 55 56 101 149 101c99 0 146 -36 146 -118v-146c0 -41 5 -73 20 -91zM257 539c-86 -24 -164 -10 -164 -68
c0 -28 25 -47 64 -47c42 0 82 24 96 62c4 11 4 32 4 53z" />
    <glyph glyph-name="Lslash" unicode="&#x141;" 
d="M73 0v276l-71 -60v82l71 60v358h95v-278l162 138v-82l-162 -137v-273h355v-84h-450z" />
    <glyph glyph-name="Oslash" unicode="&#xd8;" horiz-adv-x="778" 
d="M39 12l86 96c-40 61 -80 121 -80 252c0 214 136 368 342 368c113 0 167 -37 222 -78l82 92l48 -41l-86 -96c37 -56 77 -117 77 -250c0 -219 -146 -367 -339 -367c-114 0 -169 36 -222 75l-82 -92zM186 177l364 408c-42 33 -80 62 -160 62c-150 0 -247 -108 -247 -287
c0 -102 25 -149 43 -183zM590 534l-363 -406c42 -35 84 -59 160 -59c144 0 245 109 245 286c0 67 -14 126 -42 179z" />
    <glyph glyph-name="OE" unicode="&#x152;" horiz-adv-x="1000" 
d="M547 619v97h406v-84h-317v-219h292v-84h-292v-245h332v-84h-421v103c-44 -76 -109 -115 -194 -115c-182 0 -290 141 -290 371c0 229 104 369 288 369c89 0 151 -35 196 -109zM351 652c-109 0 -190 -96 -190 -292c0 -200 79 -296 190 -296c114 0 191 100 191 296
c0 193 -79 292 -191 292z" />
    <glyph glyph-name="ordmasculine" unicode="&#xba;" horiz-adv-x="365" 
d="M182 728c100 0 161 -77 161 -183s-60 -184 -160 -184c-97 0 -160 72 -160 183c0 107 58 184 159 184zM182 663c-57 0 -87 -41 -87 -119c0 -77 32 -118 87 -118s89 41 89 120c0 77 -35 117 -89 117z" />
    <glyph glyph-name="ae" unicode="&#xe6;" horiz-adv-x="889" 
d="M617 530c153 0 233 -119 233 -265c0 -7 -1 -21 -1 -28h-374c1 -118 68 -176 148 -176c70 0 118 43 134 110l91 -12c-32 -107 -112 -170 -224 -170c-85 0 -145 27 -197 96c-64 -64 -132 -98 -210 -98c-49 0 -88 7 -124 35c-37 28 -58 70 -58 115c0 56 33 107 91 134
c73 33 157 26 261 56c0 4 1 7 1 11c0 78 -13 120 -119 120c-105 0 -122 -47 -134 -100l-86 10c25 107 91 162 219 162c100 0 154 -19 185 -70c43 46 93 70 164 70zM389 231v29c-109 -47 -260 -13 -260 -120c0 -46 34 -81 100 -81c63 0 121 29 147 80c10 19 13 53 13 92z
M475 310h285c-9 100 -59 148 -141 148c-84 0 -138 -57 -144 -148z" />
    <glyph glyph-name="dotlessi" unicode="&#x131;" horiz-adv-x="278" 
d="M183 0h-88v518h88v-518z" />
    <glyph glyph-name="lslash" unicode="&#x142;" horiz-adv-x="222" 
d="M66 0v281l-63 -54v77l63 53v359h88v-284l66 56v-77l-66 -56v-355h-88z" />
    <glyph glyph-name="oslash" unicode="&#xf8;" horiz-adv-x="611" 
d="M71 -4l53 69c-43 49 -61 108 -61 187c0 78 12 138 54 191c45 57 109 87 188 87c56 0 101 -16 144 -42l48 63l47 -35l-52 -67c43 -58 57 -107 57 -188c0 -76 -13 -134 -54 -186c-45 -57 -111 -86 -190 -86c-60 0 -98 13 -137 39l-51 -67zM179 137l220 286
c-27 21 -54 35 -93 35c-89 0 -153 -70 -153 -198c0 -47 8 -87 26 -123zM436 376l-219 -285c25 -20 48 -30 89 -30c86 0 153 66 153 198c0 67 -15 99 -23 117z" />
    <glyph glyph-name="oe" unicode="&#x153;" horiz-adv-x="944" 
d="M673 530c126 0 232 -96 232 -278v-16h-383c2 -106 65 -175 155 -175c65 0 112 36 133 108l88 -13c-29 -110 -109 -167 -223 -167c-85 0 -158 34 -200 97c-50 -66 -115 -97 -199 -97c-136 0 -238 92 -238 274c0 162 98 267 238 267c96 0 164 -38 199 -99
c45 66 112 99 198 99zM128 260c0 -133 65 -199 152 -199c86 0 152 69 152 213c0 105 -61 184 -152 184c-90 0 -152 -78 -152 -198zM525 309h287c-8 100 -66 149 -141 149c-74 0 -138 -51 -146 -149z" />
    <glyph glyph-name="germandbls" unicode="&#xdf;" horiz-adv-x="611" 
d="M377 579c0 41 -37 77 -99 77c-95 0 -117 -69 -117 -172v-484h-88v488c0 56 5 103 22 137c30 62 98 103 181 103c119 0 187 -64 187 -140c0 -86 -75 -148 -75 -199c0 -79 190 -95 190 -234c0 -95 -75 -167 -178 -167c-82 0 -147 48 -178 117l76 36c29 -53 59 -81 100 -81
c47 0 90 35 90 89c0 86 -190 115 -190 227c0 71 79 137 79 203z" />
    <glyph glyph-name="Ydieresis" unicode="&#x178;" horiz-adv-x="667" 
d="M374 0h-95v303l-276 413h116l140 -216c15 -23 40 -61 73 -121c23 40 51 84 79 127l138 210h110l-285 -413v-303zM289 801h-91v100h91v-100zM471 801h-91v100h91v-100z" />
    <glyph glyph-name="trademark" unicode="&#x2122;" horiz-adv-x="1000" 
d="M305 318h-66v339h-129v59h325v-59h-130v-339zM540 318h-60v398h98l100 -318l97 318h96v-398h-61v334l-102 -334h-60l-108 339v-339z" />
    <glyph glyph-name="zcaron" unicode="&#x17e;" horiz-adv-x="500" 
d="M479 0h-459v71l330 379c-31 -2 -66 -5 -99 -5h-211v73h424v-57l-281 -329c-18 -22 -39 -43 -55 -61c37 3 76 5 111 5h240v-76zM203 720l56 -83l53 83h100l-110 -137h-93l-106 137h100z" />
    <glyph glyph-name="Zcaron" unicode="&#x17d;" horiz-adv-x="611" 
d="M584 0h-566v88l367 458c25 31 51 62 74 86h-400v84h513v-84l-402 -497c-13 -16 -29 -34 -43 -51h457v-84zM259 901l56 -83l53 83h100l-110 -137h-93l-106 137h100z" />
    <glyph glyph-name="scaron" unicode="&#x161;" horiz-adv-x="500" 
d="M442 385l-86 -12c-8 57 -49 85 -113 85c-72 0 -112 -26 -112 -68c0 -109 331 -42 331 -237c0 -90 -80 -164 -202 -164c-136 0 -209 51 -229 166l87 13c10 -72 59 -107 134 -107c80 0 120 38 120 82c0 115 -326 42 -326 238c0 84 70 149 192 149c66 0 118 -14 156 -48
c33 -29 42 -59 48 -97zM203 720l56 -83l53 83h100l-110 -137h-93l-106 137h100z" />
    <glyph glyph-name="Scaron" unicode="&#x160;" horiz-adv-x="667" 
d="M593 514l-91 -6c-10 91 -63 135 -174 135c-104 0 -164 -41 -164 -106c0 -42 25 -73 69 -86c67 -20 135 -37 202 -53c106 -24 179 -96 179 -196c0 -115 -97 -214 -265 -214c-196 0 -301 99 -304 242l90 8c6 -50 18 -86 58 -118c39 -31 92 -47 153 -47
c111 0 178 49 178 126c0 52 -44 90 -128 110c-57 14 -117 29 -175 46c-88 25 -147 91 -147 176c0 113 94 197 250 197c165 0 263 -82 269 -214zM287 901l56 -83l53 83h100l-110 -137h-93l-106 137h100z" />
    <glyph glyph-name="ydieresis" unicode="&#xff;" horiz-adv-x="500" 
d="M491 518l-197 -527c-44 -119 -75 -201 -175 -201c-24 0 -43 5 -57 10l-10 83c13 -3 31 -8 52 -8c75 0 80 48 109 124l-197 519h95l108 -300c15 -41 27 -82 37 -120c6 23 16 62 37 119l110 301h88zM205 620h-91v100h91v-100zM387 620h-91v100h91v-100z" />
    <glyph glyph-name="thorn" unicode="&#xfe;" 
d="M156 -199h-88v915h88v-252c32 34 67 66 142 66c133 0 220 -105 220 -265c0 -173 -100 -276 -226 -276c-69 0 -104 32 -136 65v-253zM147 256c0 -130 59 -195 139 -195c79 0 142 66 142 202c0 128 -58 198 -136 198c-84 0 -145 -81 -145 -205z" />
    <glyph glyph-name="yacute" unicode="&#xfd;" horiz-adv-x="500" 
d="M491 518l-197 -527c-44 -119 -75 -201 -175 -201c-24 0 -43 5 -57 10l-10 83c13 -3 31 -8 52 -8c75 0 80 48 109 124l-197 519h95l108 -300c15 -41 27 -82 37 -120c6 23 16 62 37 119l110 301h88zM265 583h-73l65 137h115z" />
    <glyph glyph-name="udieresis" unicode="&#xfc;" 
d="M399 241v277h88v-518h-79v76c-40 -58 -97 -88 -165 -88c-69 0 -125 30 -153 76c-24 39 -24 83 -24 133v321h88v-328c0 -84 36 -126 113 -126c30 0 67 14 93 40c34 34 39 76 39 137zM233 620h-91v100h91v-100zM415 620h-91v100h91v-100z" />
    <glyph glyph-name="ucircumflex" unicode="&#xfb;" 
d="M399 241v277h88v-518h-79v76c-40 -58 -97 -88 -165 -88c-69 0 -125 30 -153 76c-24 39 -24 83 -24 133v321h88v-328c0 -84 36 -126 113 -126c30 0 67 14 93 40c34 34 39 76 39 137zM332 583l-53 83l-56 -83h-100l106 137h93l110 -137h-100z" />
    <glyph glyph-name="uacute" unicode="&#xfa;" 
d="M399 241v277h88v-518h-79v76c-40 -58 -97 -88 -165 -88c-69 0 -125 30 -153 76c-24 39 -24 83 -24 133v321h88v-328c0 -84 36 -126 113 -126c30 0 67 14 93 40c34 34 39 76 39 137zM293 583h-73l65 137h115z" />
    <glyph glyph-name="ugrave" unicode="&#xf9;" 
d="M399 241v277h88v-518h-79v76c-40 -58 -97 -88 -165 -88c-69 0 -125 30 -153 76c-24 39 -24 83 -24 133v321h88v-328c0 -84 36 -126 113 -126c30 0 67 14 93 40c34 34 39 76 39 137zM272 720l66 -137h-71l-113 137h118z" />
    <glyph glyph-name="divide" unicode="&#xf7;" horiz-adv-x="584" 
d="M529 395v-84h-473v84h473zM342 451h-100v100h100v-100zM342 156h-100v100h100v-100z" />
    <glyph glyph-name="odieresis" unicode="&#xf6;" 
d="M35 259c0 177 102 271 243 271c78 0 144 -30 189 -87c40 -51 54 -109 54 -184c0 -178 -102 -270 -243 -270c-78 0 -144 29 -189 86c-40 51 -54 109 -54 184zM125 259c0 -128 62 -198 153 -198c89 0 153 69 153 198c0 128 -62 199 -153 199c-90 0 -153 -70 -153 -199z
M233 620h-91v100h91v-100zM415 620h-91v100h91v-100z" />
    <glyph glyph-name="otilde" unicode="&#xf5;" 
d="M35 259c0 177 102 271 243 271c78 0 144 -30 189 -87c40 -51 54 -109 54 -184c0 -178 -102 -270 -243 -270c-78 0 -144 29 -189 86c-40 51 -54 109 -54 184zM125 259c0 -128 62 -198 153 -198c89 0 153 69 153 198c0 128 -62 199 -153 199c-90 0 -153 -70 -153 -199z
M215 642c-20 0 -36 -17 -36 -41v-6h-65v10c0 52 38 102 100 102c50 0 92 -41 128 -41c23 0 31 12 35 42h64c-3 -76 -43 -111 -94 -111c-59 0 -95 45 -132 45z" />
    <glyph glyph-name="ocircumflex" unicode="&#xf4;" 
d="M35 259c0 177 102 271 243 271c78 0 144 -30 189 -87c40 -51 54 -109 54 -184c0 -178 -102 -270 -243 -270c-78 0 -144 29 -189 86c-40 51 -54 109 -54 184zM125 259c0 -128 62 -198 153 -198c89 0 153 69 153 198c0 128 -62 199 -153 199c-90 0 -153 -70 -153 -199z
M332 583l-53 83l-56 -83h-100l106 137h93l110 -137h-100z" />
    <glyph glyph-name="oacute" unicode="&#xf3;" 
d="M35 259c0 177 102 271 243 271c78 0 144 -30 189 -87c40 -51 54 -109 54 -184c0 -178 -102 -270 -243 -270c-78 0 -144 29 -189 86c-40 51 -54 109 -54 184zM125 259c0 -128 62 -198 153 -198c89 0 153 69 153 198c0 128 -62 199 -153 199c-90 0 -153 -70 -153 -199z
M293 583h-73l65 137h115z" />
    <glyph glyph-name="ograve" unicode="&#xf2;" 
d="M35 259c0 177 102 271 243 271c78 0 144 -30 189 -87c40 -51 54 -109 54 -184c0 -178 -102 -270 -243 -270c-78 0 -144 29 -189 86c-40 51 -54 109 -54 184zM125 259c0 -128 62 -198 153 -198c89 0 153 69 153 198c0 128 -62 199 -153 199c-90 0 -153 -70 -153 -199z
M272 720l66 -137h-71l-113 137h118z" />
    <glyph glyph-name="ntilde" unicode="&#xf1;" 
d="M147 518v-73c38 56 96 85 165 85c71 0 128 -30 155 -76c23 -40 23 -84 23 -135v-319h-88v315c0 38 -1 71 -20 98c-18 25 -50 41 -89 41c-51 0 -98 -25 -119 -65c-15 -28 -18 -64 -18 -106v-283h-88v518h79zM215 642c-20 0 -36 -17 -36 -41v-6h-65v10c0 52 38 102 100 102
c50 0 92 -41 128 -41c23 0 31 12 35 42h64c-3 -76 -43 -111 -94 -111c-59 0 -95 45 -132 45z" />
    <glyph glyph-name="eth" unicode="&#xf0;" 
d="M137 582l117 53c-52 48 -85 70 -101 81h106c12 -9 32 -24 61 -50l104 50l22 -50l-84 -40c103 -118 156 -239 156 -370c0 -164 -97 -268 -240 -268c-138 0 -240 94 -240 256c0 61 6 114 34 164c39 70 106 110 188 110c51 0 78 -15 102 -28c-11 22 -24 53 -69 104l-135 -62
zM428 258c0 126 -68 193 -154 193c-88 0 -146 -71 -146 -201c0 -131 70 -190 148 -190c88 0 152 71 152 198z" />
    <glyph glyph-name="idieresis" unicode="&#xef;" horiz-adv-x="278" 
d="M183 0h-88v518h88v-518zM95 620h-91v100h91v-100zM277 620h-91v100h91v-100z" />
    <glyph glyph-name="icircumflex" unicode="&#xee;" horiz-adv-x="278" 
d="M183 0h-88v518h88v-518zM194 583l-53 83l-56 -83h-100l106 137h93l110 -137h-100z" />
    <glyph glyph-name="iacute" unicode="&#xed;" horiz-adv-x="278" 
d="M183 0h-88v518h88v-518zM155 583h-73l65 137h115z" />
    <glyph glyph-name="igrave" unicode="&#xec;" horiz-adv-x="278" 
d="M183 0h-88v518h88v-518zM134 720l66 -137h-71l-113 137h118z" />
    <glyph glyph-name="edieresis" unicode="&#xeb;" 
d="M516 237h-387c6 -113 69 -176 157 -176c68 0 111 35 136 106l91 -11c-28 -105 -110 -167 -223 -167c-161 0 -252 100 -252 266c0 168 94 275 242 275c139 0 236 -99 236 -270v-23zM134 310h289c-2 19 -3 42 -13 65c-21 50 -71 83 -129 83c-84 0 -141 -63 -147 -148z
M233 620h-91v100h91v-100zM415 620h-91v100h91v-100z" />
    <glyph glyph-name="ecircumflex" unicode="&#xea;" 
d="M516 237h-387c6 -113 69 -176 157 -176c68 0 111 35 136 106l91 -11c-28 -105 -110 -167 -223 -167c-161 0 -252 100 -252 266c0 168 94 275 242 275c139 0 236 -99 236 -270v-23zM134 310h289c-2 19 -3 42 -13 65c-21 50 -71 83 -129 83c-84 0 -141 -63 -147 -148z
M332 583l-53 83l-56 -83h-100l106 137h93l110 -137h-100z" />
    <glyph glyph-name="eacute" unicode="&#xe9;" 
d="M516 237h-387c6 -113 69 -176 157 -176c68 0 111 35 136 106l91 -11c-28 -105 -110 -167 -223 -167c-161 0 -252 100 -252 266c0 168 94 275 242 275c139 0 236 -99 236 -270v-23zM134 310h289c-2 19 -3 42 -13 65c-21 50 -71 83 -129 83c-84 0 -141 -63 -147 -148z
M293 583h-73l65 137h115z" />
    <glyph glyph-name="egrave" unicode="&#xe8;" 
d="M516 237h-387c6 -113 69 -176 157 -176c68 0 111 35 136 106l91 -11c-28 -105 -110 -167 -223 -167c-161 0 -252 100 -252 266c0 168 94 275 242 275c139 0 236 -99 236 -270v-23zM134 310h289c-2 19 -3 42 -13 65c-21 50 -71 83 -129 83c-84 0 -141 -63 -147 -148z
M272 720l66 -137h-71l-113 137h118z" />
    <glyph glyph-name="ccedilla" unicode="&#xe7;" horiz-adv-x="500" 
d="M405 189l86 -10c-18 -117 -96 -184 -205 -191l-6 -24c54 -5 80 -35 80 -73c0 -61 -67 -99 -193 -83l2 58c9 -1 24 -4 46 -4c40 0 64 11 64 34s-28 33 -72 32l16 64c-113 21 -184 118 -184 262c0 179 90 276 245 276c90 0 177 -49 199 -164l-86 -14
c-16 69 -57 106 -118 106c-95 0 -150 -69 -150 -198c0 -131 55 -200 143 -200c74 0 121 43 133 129z" />
    <glyph glyph-name="aring" unicode="&#xe5;" 
d="M203 294c72 10 144 16 197 35v16c0 62 -16 113 -126 113c-101 0 -121 -44 -135 -99l-86 11c23 107 94 160 231 160c83 0 140 -16 174 -58c31 -38 30 -81 30 -137v-117c0 -93 -5 -159 28 -218h-92c-12 25 -16 47 -18 64c-60 -51 -120 -76 -188 -76
c-114 0 -180 61 -180 149c0 81 59 142 165 157zM400 228v32c-120 -49 -268 -15 -268 -121c0 -49 37 -82 109 -82c43 0 90 18 120 49c34 36 39 74 39 122zM190 653c0 45 37 88 89 88c46 0 87 -40 87 -90c0 -49 -39 -89 -88 -89c-48 0 -88 38 -88 91zM227 653
c0 -31 24 -54 52 -54c29 0 51 24 51 53s-22 53 -51 53c-30 0 -52 -25 -52 -52z" />
    <glyph glyph-name="adieresis" unicode="&#xe4;" 
d="M203 294c72 10 144 16 197 35v16c0 62 -16 113 -126 113c-101 0 -121 -44 -135 -99l-86 11c23 107 94 160 231 160c83 0 140 -16 174 -58c31 -38 30 -81 30 -137v-117c0 -93 -5 -159 28 -218h-92c-12 25 -16 47 -18 64c-60 -51 -120 -76 -188 -76
c-114 0 -180 61 -180 149c0 81 59 142 165 157zM400 228v32c-120 -49 -268 -15 -268 -121c0 -49 37 -82 109 -82c43 0 90 18 120 49c34 36 39 74 39 122zM233 620h-91v100h91v-100zM415 620h-91v100h91v-100z" />
    <glyph glyph-name="atilde" unicode="&#xe3;" 
d="M203 294c72 10 144 16 197 35v16c0 62 -16 113 -126 113c-101 0 -121 -44 -135 -99l-86 11c23 107 94 160 231 160c83 0 140 -16 174 -58c31 -38 30 -81 30 -137v-117c0 -93 -5 -159 28 -218h-92c-12 25 -16 47 -18 64c-60 -51 -120 -76 -188 -76
c-114 0 -180 61 -180 149c0 81 59 142 165 157zM400 228v32c-120 -49 -268 -15 -268 -121c0 -49 37 -82 109 -82c43 0 90 18 120 49c34 36 39 74 39 122zM215 642c-20 0 -36 -17 -36 -41v-6h-65v10c0 52 38 102 100 102c50 0 92 -41 128 -41c23 0 31 12 35 42h64
c-3 -76 -43 -111 -94 -111c-59 0 -95 45 -132 45z" />
    <glyph glyph-name="acircumflex" unicode="&#xe2;" 
d="M203 294c72 10 144 16 197 35v16c0 62 -16 113 -126 113c-101 0 -121 -44 -135 -99l-86 11c23 107 94 160 231 160c83 0 140 -16 174 -58c31 -38 30 -81 30 -137v-117c0 -93 -5 -159 28 -218h-92c-12 25 -16 47 -18 64c-60 -51 -120 -76 -188 -76
c-114 0 -180 61 -180 149c0 81 59 142 165 157zM400 228v32c-120 -49 -268 -15 -268 -121c0 -49 37 -82 109 -82c43 0 90 18 120 49c34 36 39 74 39 122zM332 583l-53 83l-56 -83h-100l106 137h93l110 -137h-100z" />
    <glyph glyph-name="aacute" unicode="&#xe1;" 
d="M203 294c72 10 144 16 197 35v16c0 62 -16 113 -126 113c-101 0 -121 -44 -135 -99l-86 11c23 107 94 160 231 160c83 0 140 -16 174 -58c31 -38 30 -81 30 -137v-117c0 -93 -5 -159 28 -218h-92c-12 25 -16 47 -18 64c-60 -51 -120 -76 -188 -76
c-114 0 -180 61 -180 149c0 81 59 142 165 157zM400 228v32c-120 -49 -268 -15 -268 -121c0 -49 37 -82 109 -82c43 0 90 18 120 49c34 36 39 74 39 122zM293 583h-73l65 137h115z" />
    <glyph glyph-name="agrave" unicode="&#xe0;" 
d="M203 294c72 10 144 16 197 35v16c0 62 -16 113 -126 113c-101 0 -121 -44 -135 -99l-86 11c23 107 94 160 231 160c83 0 140 -16 174 -58c31 -38 30 -81 30 -137v-117c0 -93 -5 -159 28 -218h-92c-12 25 -16 47 -18 64c-60 -51 -120 -76 -188 -76
c-114 0 -180 61 -180 149c0 81 59 142 165 157zM400 228v32c-120 -49 -268 -15 -268 -121c0 -49 37 -82 109 -82c43 0 90 18 120 49c34 36 39 74 39 122zM272 720l66 -137h-71l-113 137h118z" />
    <glyph glyph-name="Thorn" unicode="&#xde;" horiz-adv-x="667" 
d="M172 0h-95v716h95v-146h175c84 0 149 -2 206 -48c47 -38 71 -92 71 -160c0 -59 -19 -109 -57 -149c-52 -55 -117 -67 -212 -67h-183v-146zM172 486v-256h185c112 0 169 42 169 129c0 39 -13 72 -39 96c-35 32 -74 31 -132 31h-183z" />
    <glyph glyph-name="Yacute" unicode="&#xdd;" horiz-adv-x="667" 
d="M374 0h-95v303l-276 413h116l140 -216c15 -23 40 -61 73 -121c23 40 51 84 79 127l138 210h110l-285 -413v-303zM349 764h-73l65 137h115z" />
    <glyph glyph-name="Udieresis" unicode="&#xdc;" horiz-adv-x="722" 
d="M547 303v413h95v-413c0 -115 -12 -193 -86 -255c-53 -45 -115 -60 -195 -60c-81 0 -143 15 -197 60c-74 61 -85 139 -85 255v413h95v-413c0 -87 6 -140 48 -182c34 -34 77 -48 134 -48c62 0 107 11 144 48c43 43 47 97 47 182zM316 801h-91v100h91v-100zM498 801h-91v100
h91v-100z" />
    <glyph glyph-name="Ucircumflex" unicode="&#xdb;" horiz-adv-x="722" 
d="M547 303v413h95v-413c0 -115 -12 -193 -86 -255c-53 -45 -115 -60 -195 -60c-81 0 -143 15 -197 60c-74 61 -85 139 -85 255v413h95v-413c0 -87 6 -140 48 -182c34 -34 77 -48 134 -48c62 0 107 11 144 48c43 43 47 97 47 182zM415 764l-53 83l-56 -83h-100l106 137h93
l110 -137h-100z" />
    <glyph glyph-name="Uacute" unicode="&#xda;" horiz-adv-x="722" 
d="M547 303v413h95v-413c0 -115 -12 -193 -86 -255c-53 -45 -115 -60 -195 -60c-81 0 -143 15 -197 60c-74 61 -85 139 -85 255v413h95v-413c0 -87 6 -140 48 -182c34 -34 77 -48 134 -48c62 0 107 11 144 48c43 43 47 97 47 182zM376 764h-73l65 137h115z" />
    <glyph glyph-name="Ugrave" unicode="&#xd9;" horiz-adv-x="722" 
d="M547 303v413h95v-413c0 -115 -12 -193 -86 -255c-53 -45 -115 -60 -195 -60c-81 0 -143 15 -197 60c-74 61 -85 139 -85 255v413h95v-413c0 -87 6 -140 48 -182c34 -34 77 -48 134 -48c62 0 107 11 144 48c43 43 47 97 47 182zM355 901l66 -137h-71l-113 137h118z" />
    <glyph glyph-name="multiply" unicode="&#xd7;" horiz-adv-x="584" 
d="M138 141l-59 59l154 154l-153 153l59 60l154 -154l152 153l59 -59l-153 -153l154 -153l-60 -60l-153 154z" />
    <glyph glyph-name="Odieresis" unicode="&#xd6;" horiz-adv-x="778" 
d="M47 349c0 236 145 379 330 379c219 0 355 -148 355 -371c0 -225 -148 -369 -338 -369c-213 0 -347 162 -347 361zM145 347c0 -167 100 -278 244 -278c146 0 245 108 245 288c0 186 -106 290 -240 290c-154 0 -249 -104 -249 -300zM344 801h-91v100h91v-100zM526 801h-91
v100h91v-100z" />
    <glyph glyph-name="Otilde" unicode="&#xd5;" horiz-adv-x="778" 
d="M47 349c0 236 145 379 330 379c219 0 355 -148 355 -371c0 -225 -148 -369 -338 -369c-213 0 -347 162 -347 361zM145 347c0 -167 100 -278 244 -278c146 0 245 108 245 288c0 186 -106 290 -240 290c-154 0 -249 -104 -249 -300zM326 823c-20 0 -36 -17 -36 -41v-6h-65
v10c0 52 38 102 100 102c50 0 92 -41 128 -41c23 0 31 12 35 42h64c-3 -76 -43 -111 -94 -111c-59 0 -95 45 -132 45z" />
    <glyph glyph-name="Ocircumflex" unicode="&#xd4;" horiz-adv-x="778" 
d="M47 349c0 236 145 379 330 379c219 0 355 -148 355 -371c0 -225 -148 -369 -338 -369c-213 0 -347 162 -347 361zM145 347c0 -167 100 -278 244 -278c146 0 245 108 245 288c0 186 -106 290 -240 290c-154 0 -249 -104 -249 -300zM443 764l-53 83l-56 -83h-100l106 137
h93l110 -137h-100z" />
    <glyph glyph-name="Oacute" unicode="&#xd3;" horiz-adv-x="778" 
d="M47 349c0 236 145 379 330 379c219 0 355 -148 355 -371c0 -225 -148 -369 -338 -369c-213 0 -347 162 -347 361zM145 347c0 -167 100 -278 244 -278c146 0 245 108 245 288c0 186 -106 290 -240 290c-154 0 -249 -104 -249 -300zM404 764h-73l65 137h115z" />
    <glyph glyph-name="Ograve" unicode="&#xd2;" horiz-adv-x="778" 
d="M47 349c0 236 145 379 330 379c219 0 355 -148 355 -371c0 -225 -148 -369 -338 -369c-213 0 -347 162 -347 361zM145 347c0 -167 100 -278 244 -278c146 0 245 108 245 288c0 186 -106 290 -240 290c-154 0 -249 -104 -249 -300zM383 901l66 -137h-71l-113 137h118z" />
    <glyph glyph-name="Ntilde" unicode="&#xd1;" horiz-adv-x="722" 
d="M170 0h-91v716h97l376 -562v562h91v-716h-97l-376 562v-562zM298 823c-20 0 -36 -17 -36 -41v-6h-65v10c0 52 38 102 100 102c50 0 92 -41 128 -41c23 0 31 12 35 42h64c-3 -76 -43 -111 -94 -111c-59 0 -95 45 -132 45z" />
    <glyph glyph-name="Eth" unicode="&#xd0;" horiz-adv-x="722" 
d="M337 0h-258v325h-79v66h79v325h247c84 0 155 -3 222 -54c78 -59 123 -163 123 -298c0 -159 -56 -272 -154 -327c-67 -38 -123 -37 -180 -37zM174 325v-241h152c85 0 140 11 183 61c46 53 64 126 64 225c0 97 -26 170 -77 216c-49 44 -103 46 -172 46h-150v-241h197v-66
h-197z" />
    <glyph glyph-name="Idieresis" unicode="&#xcf;" horiz-adv-x="278" 
d="M187 0h-95v716h95v-716zM95 801h-91v100h91v-100zM277 801h-91v100h91v-100z" />
    <glyph glyph-name="Icircumflex" unicode="&#xce;" horiz-adv-x="278" 
d="M187 0h-95v716h95v-716zM194 764l-53 83l-56 -83h-100l106 137h93l110 -137h-100z" />
    <glyph glyph-name="Iacute" unicode="&#xcd;" horiz-adv-x="278" 
d="M187 0h-95v716h95v-716zM155 764h-73l65 137h115z" />
    <glyph glyph-name="Igrave" unicode="&#xcc;" horiz-adv-x="278" 
d="M187 0h-95v716h95v-716zM134 901l66 -137h-71l-113 137h118z" />
    <glyph glyph-name="Edieresis" unicode="&#xcb;" horiz-adv-x="667" 
d="M613 0h-534v716h518v-84h-423v-220h396v-84h-396v-244h439v-84zM289 801h-91v100h91v-100zM471 801h-91v100h91v-100z" />
    <glyph glyph-name="Ecircumflex" unicode="&#xca;" horiz-adv-x="667" 
d="M613 0h-534v716h518v-84h-423v-220h396v-84h-396v-244h439v-84zM388 764l-53 83l-56 -83h-100l106 137h93l110 -137h-100z" />
    <glyph glyph-name="Eacute" unicode="&#xc9;" horiz-adv-x="667" 
d="M613 0h-534v716h518v-84h-423v-220h396v-84h-396v-244h439v-84zM349 764h-73l65 137h115z" />
    <glyph glyph-name="Egrave" unicode="&#xc8;" horiz-adv-x="667" 
d="M613 0h-534v716h518v-84h-423v-220h396v-84h-396v-244h439v-84zM328 901l66 -137h-71l-113 137h118z" />
    <glyph glyph-name="Ccedilla" unicode="&#xc7;" horiz-adv-x="722" 
d="M590 251l95 -24c-39 -150 -141 -233 -286 -239l-6 -25c54 -7 82 -38 82 -77c0 -61 -57 -96 -167 -96c-15 0 -37 0 -55 1l4 62c28 -3 52 -2 67 -2c38 0 66 12 66 35c0 26 -28 36 -82 37l25 68c-180 21 -281 166 -281 369c0 229 137 368 338 368c142 0 245 -76 283 -209
l-94 -22c-32 100 -93 150 -191 150c-151 0 -238 -104 -238 -286c0 -93 14 -161 62 -217c43 -50 100 -75 170 -75c103 0 182 60 208 182z" />
    <glyph glyph-name="Aring" unicode="&#xc5;" horiz-adv-x="667" 
d="M99 0h-101l275 716h102l293 -716h-108l-84 218h-299zM283 504l-78 -210h242l-74 198c-12 32 -31 81 -51 149c-9 -45 -24 -96 -39 -137zM246 834c0 45 37 88 89 88c46 0 87 -40 87 -90c0 -49 -39 -89 -88 -89c-48 0 -88 38 -88 91zM283 834c0 -31 24 -54 52 -54
c29 0 51 24 51 53s-22 53 -51 53c-30 0 -52 -25 -52 -52z" />
    <glyph glyph-name="Adieresis" unicode="&#xc4;" horiz-adv-x="667" 
d="M99 0h-101l275 716h102l293 -716h-108l-84 218h-299zM283 504l-78 -210h242l-74 198c-12 32 -31 81 -51 149c-9 -45 -24 -96 -39 -137zM289 801h-91v100h91v-100zM471 801h-91v100h91v-100z" />
    <glyph glyph-name="Atilde" unicode="&#xc3;" horiz-adv-x="667" 
d="M99 0h-101l275 716h102l293 -716h-108l-84 218h-299zM283 504l-78 -210h242l-74 198c-12 32 -31 81 -51 149c-9 -45 -24 -96 -39 -137zM271 823c-20 0 -36 -17 -36 -41v-6h-65v10c0 52 38 102 100 102c50 0 92 -41 128 -41c23 0 31 12 35 42h64c-3 -76 -43 -111 -94 -111
c-59 0 -95 45 -132 45z" />
    <glyph glyph-name="Acircumflex" unicode="&#xc2;" horiz-adv-x="667" 
d="M99 0h-101l275 716h102l293 -716h-108l-84 218h-299zM283 504l-78 -210h242l-74 198c-12 32 -31 81 -51 149c-9 -45 -24 -96 -39 -137zM388 764l-53 83l-56 -83h-100l106 137h93l110 -137h-100z" />
    <glyph glyph-name="Aacute" unicode="&#xc1;" horiz-adv-x="667" 
d="M99 0h-101l275 716h102l293 -716h-108l-84 218h-299zM283 504l-78 -210h242l-74 198c-12 32 -31 81 -51 149c-9 -45 -24 -96 -39 -137zM349 764h-73l65 137h115z" />
    <glyph glyph-name="Agrave" unicode="&#xc0;" horiz-adv-x="667" 
d="M99 0h-101l275 716h102l293 -716h-108l-84 218h-299zM283 504l-78 -210h242l-74 198c-12 32 -31 81 -51 149c-9 -45 -24 -96 -39 -137zM328 901l66 -137h-71l-113 137h118z" />
    <glyph glyph-name="mu" unicode="&#xb5;" 
d="M409 0v61c-28 -42 -60 -74 -132 -74c-65 0 -95 32 -121 65v-251h-88v717h88v-252c0 -61 3 -108 16 -134c20 -41 58 -64 101 -64c44 0 82 20 105 56c18 28 22 76 22 140v254h88v-518h-79z" />
    <glyph glyph-name="plusminus" unicode="&#xb1;" horiz-adv-x="584" 
d="M334 127h-83v197h-195v81h195v195h83v-195h195v-81h-195v-197zM529 84v-84h-473v84h473z" />
    <glyph glyph-name="degree" unicode="&#xb0;" horiz-adv-x="400" 
d="M65 593c0 74 60 135 136 135c75 0 135 -60 135 -135s-61 -136 -135 -136c-75 0 -136 61 -136 136zM118 593c0 -45 38 -83 83 -83s82 37 82 83s-36 82 -82 82s-83 -37 -83 -82z" />
    <glyph glyph-name="registered" unicode="&#xae;" horiz-adv-x="737" 
d="M271 156h-64v396h136c41 0 79 0 108 -13c37 -17 62 -54 62 -91c0 -61 -43 -109 -113 -115c35 -14 57 -44 92 -100l48 -77h-78l-35 62c-46 81 -65 106 -118 106h-38v-168zM271 498v-119h78c59 0 96 14 96 60c0 54 -51 59 -101 59h-73zM369 728c204 0 368 -165 368 -368
s-164 -369 -368 -369c-203 0 -369 165 -369 369s166 368 369 368zM369 667c-169 0 -308 -137 -308 -307s139 -308 308 -308s307 138 307 308c0 169 -137 307 -307 307z" />
    <glyph glyph-name="logicalnot" unicode="&#xac;" horiz-adv-x="584" 
d="M529 504v-297h-83v213h-390v84h473z" />
    <glyph glyph-name="copyright" unicode="&#xa9;" horiz-adv-x="737" 
d="M539 451l-58 -14c-20 50 -58 75 -114 75c-72 0 -125 -59 -125 -156c0 -93 48 -150 127 -150c48 0 102 29 118 94l60 -18c-20 -85 -91 -133 -177 -133c-117 0 -194 77 -194 216c0 116 72 201 197 201c84 0 144 -42 166 -115zM369 728c204 0 368 -165 368 -368
s-164 -369 -368 -369c-203 0 -369 165 -369 369s166 368 369 368zM369 667c-169 0 -308 -137 -308 -307s139 -308 308 -308s307 138 307 308c0 169 -137 307 -307 307z" />
    <glyph glyph-name="brokenbar" unicode="&#xa6;" horiz-adv-x="260" 
d="M92 728h77v-386h-77v386zM92 176h77v-386h-77v386z" />
    <glyph glyph-name="minus" unicode="&#x2212;" horiz-adv-x="584" 
d="M529 395v-84h-473v84h473z" />
    <glyph glyph-name="threesuperior" unicode="&#xb3;" horiz-adv-x="333" 
d="M316 463c0 -64 -56 -114 -151 -114c-84 0 -135 35 -149 105l72 7c9 -27 24 -55 75 -55c44 0 77 28 77 65s-28 54 -79 54c-7 0 -20 -1 -26 -1l11 53h5c39 0 71 17 71 53c0 21 -19 41 -60 41c-39 0 -56 -19 -68 -50l-70 11c25 63 57 93 139 93c89 0 135 -35 135 -92
c0 -36 -24 -66 -67 -78c57 -14 85 -47 85 -92z" />
    <glyph glyph-name="twosuperior" unicode="&#xb2;" horiz-adv-x="333" 
d="M316 358h-304c7 61 69 110 189 197c21 15 37 36 37 58c0 33 -25 55 -70 55c-49 0 -62 -24 -72 -56l-74 7c18 70 59 106 152 106c90 0 140 -41 140 -102c0 -96 -123 -141 -186 -206h188v-59z" />
    <glyph glyph-name="onesuperior" unicode="&#xb9;" horiz-adv-x="333" 
d="M232 358h-70v271c-31 -25 -72 -46 -110 -56v61c40 13 95 49 128 91h52v-367z" />
    <glyph glyph-name="threequarters" unicode="&#xbe;" horiz-adv-x="834" 
d="M316 463c0 -64 -56 -114 -151 -114c-84 0 -135 35 -149 105l72 7c9 -27 24 -55 75 -55c44 0 77 28 77 65s-28 54 -79 54c-4 0 -18 -1 -26 -1l11 53h5c39 0 71 17 71 53c0 21 -19 41 -60 41c-39 0 -56 -19 -68 -50l-70 11c25 63 57 93 139 93c89 0 135 -35 135 -92
c0 -36 -24 -66 -67 -78c57 -14 85 -47 85 -92zM200 -28h-77l538 756h76zM768 -15h-70v75h-187v60l198 231h59v-238h51v-53h-51v-75zM586 113h112v128z" />
    <glyph glyph-name="onehalf" unicode="&#xbd;" horiz-adv-x="834" 
d="M232 358h-70v271c-31 -25 -72 -46 -110 -56v61c40 13 95 49 128 91h52v-367zM188 -28h-77l538 756h76zM816 -15h-304c7 61 69 110 189 197c21 15 37 36 37 58c0 33 -25 54 -70 54c-49 0 -62 -24 -72 -56l-74 8c18 70 59 105 152 105c90 0 140 -40 140 -101
c0 -96 -123 -141 -186 -206h188v-59z" />
    <glyph glyph-name="onequarter" unicode="&#xbc;" horiz-adv-x="834" 
d="M232 358h-70v271c-31 -25 -72 -46 -110 -56v61c40 13 95 49 128 91h52v-367zM200 -28h-77l538 756h76zM769 -15h-70v75h-188v60l198 231h60v-238h50v-53h-50v-75zM586 113h113v128z" />
    <glyph glyph-name="uni00A0" unicode="&#xa0;" horiz-adv-x="278" 
 />
    <glyph glyph-name="uni00AD" unicode="&#xad;" horiz-adv-x="333" 
d="M302 215h-270v88h270v-88z" />
    <glyph glyph-name="uni03A9" unicode="&#x3a9;" horiz-adv-x="713" 
d="M658 0h-235v75c58 52 140 141 140 300c0 148 -73 258 -208 258c-128 0 -214 -107 -214 -259c0 -156 79 -245 141 -299v-75h-235v75h152c-64 51 -154 146 -154 315c0 185 127 322 311 322c194 0 303 -134 303 -320c0 -153 -80 -258 -155 -317h154v-75z" />
    <glyph glyph-name="uni03BC" unicode="&#x3bc;" 
d="M409 0v61c-28 -42 -60 -74 -132 -74c-65 0 -95 32 -121 65v-251h-88v717h88v-252c0 -61 3 -108 16 -134c20 -41 58 -64 101 -64c44 0 82 20 105 56c18 28 22 76 22 140v254h88v-518h-79z" />
    <glyph glyph-name="litre" unicode="&#x2113;" horiz-adv-x="495" 
d="M409 51c-28 -28 -75 -65 -134 -65c-39 0 -67 12 -88 34c-25 26 -38 72 -38 121v102c-19 -21 -38 -41 -57 -62c-11 15 -23 29 -34 43c31 33 61 65 91 98v224c0 121 52 182 129 182s102 -63 102 -110c0 -96 -48 -178 -114 -261c-10 -12 -24 -31 -33 -41v-171
c0 -67 26 -92 62 -92c34 0 63 25 84 48c10 -17 20 -33 30 -50zM321 608c0 27 -11 53 -37 53c-32 0 -51 -29 -51 -107v-154c6 7 14 18 20 26c40 59 68 127 68 182z" />
    <glyph glyph-name="estimated" unicode="&#x212e;" horiz-adv-x="662" 
d="M613 291h-449v-200c43 -43 96 -65 159 -65c101 0 166 50 215 132c12 -7 24 -15 36 -22c-60 -90 -129 -148 -251 -148c-174 0 -284 136 -284 303c0 169 108 304 285 304c180 0 284 -135 289 -304zM484 329v162c-42 42 -99 67 -161 67s-117 -22 -159 -66v-163h320z" />
    <glyph glyph-name="Euro" unicode="&#x20ac;" 
d="M541 688l-20 -90c-39 32 -85 49 -135 49c-162 0 -223 -129 -230 -190h333l-13 -66h-328v-19c0 -15 -1 -30 0 -45h314l-13 -66h-291c21 -104 88 -192 220 -192c57 0 108 16 143 48v-101c-33 -15 -79 -28 -135 -28c-197 0 -288 108 -325 273h-75l14 66h51
c-1 22 -1 42 -1 64h-64l14 66h57c32 169 159 271 331 271c53 0 107 -11 153 -40z" />
    <glyph glyph-name="infinity" unicode="&#x221e;" horiz-adv-x="787" 
d="M737 294c0 -94 -65 -169 -164 -169c-78 0 -142 48 -182 110h-2c-42 -62 -104 -110 -178 -110c-96 0 -168 66 -168 165c0 101 71 168 166 168c84 0 143 -54 180 -110h2c32 48 93 110 179 110c96 0 167 -67 167 -164zM663 293c0 54 -31 99 -97 99c-60 0 -102 -41 -140 -100
c36 -63 86 -101 140 -101c67 0 97 48 97 102zM355 292c-35 58 -88 100 -141 100c-65 0 -97 -47 -97 -102c0 -57 41 -100 98 -100c58 0 106 48 140 102z" />
    <glyph glyph-name="partialdiff" unicode="&#x2202;" horiz-adv-x="579" 
d="M536 480c0 -59 -8 -126 -25 -191c-39 -149 -131 -300 -280 -300c-110 0 -185 78 -185 192c0 197 135 316 263 316c68 0 114 -34 132 -70h2c3 20 5 40 5 66c0 109 -51 165 -136 165c-32 0 -69 -10 -96 -26c-8 20 -15 41 -22 62c27 17 78 34 130 34c128 0 212 -87 212 -248
zM432 348c-14 46 -51 83 -112 83c-96 0 -183 -112 -183 -254c0 -71 38 -117 96 -117c94 0 168 121 199 288z" />
    <glyph glyph-name="summation" unicode="&#x2211;" horiz-adv-x="634" 
d="M591 -230h-568v44c106 142 212 283 319 425c-99 137 -198 274 -298 411v50h523v-75h-407l279 -384l-297 -396h449v-75z" />
    <glyph glyph-name="product" unicode="&#x220f;" horiz-adv-x="722" 
d="M640 -230h-92v851h-373v-851h-92v930h557v-930z" />
    <glyph glyph-name="pi" unicode="&#x3c0;" horiz-adv-x="658" 
d="M595 69l17 -61c-18 -10 -44 -16 -74 -16c-91 0 -125 63 -125 139v300h-163v-292c0 -61 -6 -105 -15 -139h-93c12 40 17 92 17 145v286c-29 0 -74 -10 -100 -23c-8 20 -17 41 -25 61c28 15 81 31 147 31h428v-69h-106v-289c0 -49 16 -81 59 -81c12 0 23 4 33 8z" />
    <glyph glyph-name="integral" unicode="&#x222b;" horiz-adv-x="493" 
d="M411 669c-10 4 -28 9 -45 9c-52 0 -79 -34 -79 -97v-635c0 -107 -56 -175 -159 -175c-25 0 -59 6 -75 12c6 23 12 45 18 68c12 -5 27 -9 45 -9c53 0 80 34 80 96v636c0 105 54 175 160 175c28 0 61 -7 74 -14c-6 -22 -13 -44 -19 -66z" />
    <glyph glyph-name="Omega" unicode="&#x2126;" horiz-adv-x="713" 
d="M658 0h-235v75c58 52 140 141 140 300c0 148 -73 258 -208 258c-128 0 -214 -107 -214 -259c0 -156 79 -245 141 -299v-75h-235v75h152c-64 51 -154 146 -154 315c0 185 127 322 311 322c194 0 303 -134 303 -320c0 -153 -80 -258 -155 -317h154v-75z" />
    <glyph glyph-name="radical" unicode="&#x221a;" horiz-adv-x="518" 
d="M522 729c-63 -247 -126 -494 -190 -741h-74l-135 333c-18 -12 -37 -23 -55 -34c-10 17 -19 33 -29 50c41 26 83 52 124 78c44 -107 87 -214 131 -321c54 211 108 423 162 635h66z" />
    <glyph glyph-name="Delta" unicode="&#x2206;" horiz-adv-x="612" 
d="M607 0h-581v43c78 219 155 438 233 657h118c76 -219 154 -438 230 -657v-43zM499 76c-56 161 -111 322 -167 483c-8 25 -12 44 -16 58h-3c-3 -13 -9 -35 -15 -57c-56 -161 -113 -323 -169 -484h370z" />
    <glyph glyph-name="lozenge" unicode="&#x25ca;" horiz-adv-x="563" 
d="M500 350c-68 -117 -136 -233 -204 -350h-46c-68 116 -136 233 -204 349l204 351h46c68 -117 136 -233 204 -350zM427 350c-51 88 -103 176 -154 264c-51 -88 -103 -176 -154 -264c51 -88 102 -176 154 -264c51 88 102 176 154 264z" />
    <glyph glyph-name="notequal" unicode="&#x2260;" horiz-adv-x="584" 
d="M500 143h-233l-52 -117h-90l53 117h-94v83h131l64 141h-195v83h232l57 127h89l-57 -127h95v-83h-132l-64 -141h196v-83z" />
    <glyph glyph-name="lessequal" unicode="&#x2264;" horiz-adv-x="584" 
d="M500 0h-416v83h416v-83zM500 138l-416 186v70l416 185v-88l-306 -132v-2l306 -131v-88z" />
    <glyph glyph-name="greaterequal" unicode="&#x2265;" horiz-adv-x="584" 
d="M500 0h-416v83h416v-83zM500 324l-416 -185v88l306 131v3l-306 131v88l416 -186v-70z" />
    <glyph glyph-name="approxequal" unicode="&#x2248;" horiz-adv-x="584" 
d="M524 421c-34 -52 -73 -86 -134 -86c-35 0 -72 11 -105 31c-27 17 -56 32 -87 32c-37 0 -65 -34 -83 -65l-54 62c32 47 70 86 134 86c39 0 73 -12 104 -31c33 -20 59 -32 88 -32c36 0 63 31 83 65zM524 197c-34 -51 -73 -86 -134 -86c-35 0 -72 11 -105 31
c-27 18 -56 32 -87 32c-37 0 -65 -34 -83 -65l-54 62c32 48 70 86 134 86c39 0 73 -12 104 -31c33 -20 59 -32 88 -32c36 0 63 31 83 65z" />
    <glyph glyph-name="uni02C9" unicode="&#x2c9;" horiz-adv-x="333" 
d="M319 599h-305v73h305v-73z" />
    <glyph glyph-name="uni2215" unicode="&#x2215;" horiz-adv-x="167" 
d="M-145 -28h-77l538 756h76z" />
    <glyph glyph-name="uni2219" unicode="&#x2219;" horiz-adv-x="278" 
d="M189 302h-100v100h100v-100z" />
    </font>
</defs>
</svg>
