<svg xmlns="http://www.w3.org/2000/svg" width="23" height="23" viewBox="0 0 23 23"><g><g><path fill="#2691cb" d="M9.2 20.7c0 1.265-1.035 2.3-2.3 2.3a2.307 2.307 0 0 1-2.3-2.3c0-1.265 1.035-2.3 2.3-2.3s2.3 1.035 2.3 2.3zM3.795 0L4.83 2.3h17.02c.69 0 1.15.46 1.15 1.15 0 .23 0 .345-.23.575L18.63 11.5c-.345.69-1.035 1.15-1.955 1.15h-8.51L7.13 14.604v.115c0 .116.115.23.23.23H20.7v2.3H6.9a2.307 2.307 0 0 1-2.3-2.3c0-.345.115-.804.23-1.15l1.61-2.76L2.3 2.3H0V0zM20.7 20.7c0 1.265-1.035 2.3-2.3 2.3a2.307 2.307 0 0 1-2.3-2.3c0-1.265 1.035-2.3 2.3-2.3s2.3 1.035 2.3 2.3z"/></g></g></svg>