<svg xmlns="http://www.w3.org/2000/svg" width="21" height="25" viewBox="0 0 21 25"><g><g><path fill="#2483be" d="M21 21.493s-.12.966-1.164 1.852c-1.044.885-2.288 1.73-4.215 1.65-1.927-.08-6.985-4.71-9.675-7.849C3.256 14.006-.156 7.205.005 5.071.165 2.938 2.775.161 4.581 0c1.165.362 3.051 5.796 3.091 7.205-.12.603-.963.402-1.726 1.006-.24.19-1.084.966-1.084 1.932s2.168 3.864 2.97 4.91c.804 1.047 3.333 4.146 4.497 3.985 1.164-.161 1.325-1.227 2.007-1.852.923-.845 5.58 2.898 6.664 4.307z"/></g></g></svg>