<svg xmlns="http://www.w3.org/2000/svg" width="57" height="57" viewBox="0 0 57 57"><g><g><path fill="#ff5900" d="M57 28.5C57 44.239 44.24 57 28.5 57S0 44.239 0 28.5C0 12.76 12.76 0 28.5 0S57 12.76 57 28.5zM32.253 42.75c0-2.29-1.466-3.943-3.753-3.943-2.164 0-3.753 1.653-3.753 3.942 0 2.227 1.525 3.944 3.753 3.944 2.287 0 3.753-1.717 3.753-3.944zm.888-27.6c0-7.422-9.241-7.386-9.241 0 0 5.597 2.438 14.217 3.125 16.485.596 1.972 2.384 1.935 2.952 0 .592-2.012 3.162-10.854 3.164-16.485z"/></g></g></svg>